<svg xmlns="http://www.w3.org/2000/svg" xmlns:xlink="http://www.w3.org/1999/xlink" viewBox="0 0 900 316.41">
  <defs>
    <style>
      .cls-1 {
        fill: #fff;
      }

      .cls-2 {
        fill: url(#linear-gradient);
      }
    </style>
    <linearGradient id="linear-gradient" x1="76.17" y1="311.38" x2="245.14" y2="5.37" gradientTransform="matrix(1, 0, 0, -1, 0, 318)" gradientUnits="userSpaceOnUse">
      <stop offset="0" stop-color="#3060fc"/>
      <stop offset="1" stop-color="#15ca77"/>
    </linearGradient>
  </defs>
  <g id="Layer_2" data-name="Layer 2">
    <g id="Layer_2-2" data-name="Layer 2">
      <g id="Layer_1-2" data-name="Layer 1-2">
        <g>
          <g>
            <path class="cls-1" d="M390.52,264.27q-13.65,0-22-3.5V250.29a66.68,66.68,0,0,0,10.1,2.84,54,54,0,0,0,10.76,1.09q8.41,0,12.62-2t4.2-7.86a9,9,0,0,0-1.74-5.79,13.71,13.71,0,0,0-5.79-3.77,92.65,92.65,0,0,0-11.14-3.33q-11.35-3-15.95-7.48T367,211.51q0-9.28,6.77-14.53t20.2-5.24a72.68,72.68,0,0,1,11.53.87,50.72,50.72,0,0,1,8.47,2v10.49a51.15,51.15,0,0,0-18.35-3.17q-7.86,0-12.23,2.08c-2.91,1.38-4.37,3.9-4.37,7.54a8.12,8.12,0,0,0,1.53,5.14,11.8,11.8,0,0,0,5.3,3.38q3.76,1.43,10.43,3.17,8.63,2.19,13.38,5.19a17.25,17.25,0,0,1,6.66,7,20.47,20.47,0,0,1,1.91,9q0,9.28-6.88,14.58t-20.86,5.3Z"/>
            <path class="cls-1" d="M466.43,264.27q-16.71,0-25-8.79t-8.3-27.25c0-12.3,2.77-22.1,8.3-27.85s13.87-8.63,25-8.63,19.57,2.88,25.07,8.63,8.25,15,8.25,27.85-2.75,21.39-8.25,27.25S477.64,264.27,466.43,264.27Zm0-10q11,0,16.22-6.06t5.19-19.93q0-14.64-5.19-20.48t-16.22-5.84c-7.35,0-12.65,2-16.11,5.84s-5.19,10.73-5.19,20.48q0,13.88,5.19,19.93t16.11,6.06Z"/>
            <path class="cls-1" d="M516.79,263.17V192.83H528.7V254h36v9.17h-48Z"/>
            <path class="cls-1" d="M577.52,263.17l26.87-70.34h13.33l26.65,70.34H632.14l-7-18.13H596.86l-7,18.13H577.52Zm21.19-27.31h24.47L611,203.64l-12.23,32.22Z"/>
            <path class="cls-1" d="M661.51,263.17V192.83h32.33q11.79,0,17.21,6.06t5.41,16.44A21.4,21.4,0,0,1,712.75,228,19.36,19.36,0,0,1,702,235.32a12.32,12.32,0,0,1,3.06,3.06,24.17,24.17,0,0,1,2.19,4.37l8.85,20.42H703.91l-8.63-19.66a9.2,9.2,0,0,0-2.9-4q-1.7-1.2-5.73-1.2H673.43v24.91H661.51Zm11.91-34.52h17.26q6.44,0,10.16-3.17t3.71-10.16q0-13.22-12.78-13.22H673.42v26.54Z"/>
          </g>
          <g>
            <path class="cls-1" d="M368.7,159.58v-91h22.61l34.34,48.18V68.58h26.56v91H429.46l-34.2-48v48Z"/>
            <path class="cls-1" d="M515.66,161q-22.61,0-34.55-11t-11.94-35.61q0-17,5.37-27.34A32.54,32.54,0,0,1,490.3,71.9q10.38-4.74,25.36-4.74T541,71.9A32.58,32.58,0,0,1,556.78,87q5.37,10.38,5.37,27.34,0,24.58-12,35.61T515.66,161Zm0-22.61q10.17,0,14.77-5.72t4.59-18.3q0-13.42-4.59-19t-14.77-5.58q-10.18,0-14.77,5.58t-4.59,19q0,12.58,4.59,18.3T515.66,138.38Z"/>
            <path class="cls-1" d="M579.1,159.58v-91h47.34q11.16,0,18.3,4.1a25.89,25.89,0,0,1,10.67,11.38,38.29,38.29,0,0,1,3.53,16.88,28.18,28.18,0,0,1-4.59,16.18,29.87,29.87,0,0,1-12.22,10.67,12.64,12.64,0,0,1,2.68,3,38.91,38.91,0,0,1,2.54,4.88l10.46,23.88h-27.7l-9.61-21.9a8,8,0,0,0-2.76-3.6,8.34,8.34,0,0,0-4.59-1.06h-7.49v26.56H579.1Zm26.57-46.91h14c3.86,0,6.86-1,9-3s3.18-4.92,3.18-8.69q0-12-11.3-12H605.67v23.74Z"/>
            <path class="cls-1" d="M675.89,159.58v-91h40.7q14,0,23.88,4.59a31.69,31.69,0,0,1,15.12,14.7q5.22,10.11,5.23,26.78,0,23.46-11.44,34.2T716.6,159.59H675.89Zm26.56-20.35h10.74a28.76,28.76,0,0,0,11.16-1.91,13.28,13.28,0,0,0,6.92-7.21q2.4-5.3,2.4-15.47t-2.19-15.76a13.72,13.72,0,0,0-6.71-7.77,26.65,26.65,0,0,0-11.59-2.19H702.44v50.3Z"/>
            <path class="cls-1" d="M777.77,159.58v-91h26.57v91Z"/>
            <path class="cls-1" d="M872,161q-24.72,0-37.73-12.15t-13-34.34c0-14.79,4.24-27,12.72-35.12s21.1-12.22,37.87-12.22A76,76,0,0,1,899.72,72V95.14a63.6,63.6,0,0,0-26-5.37q-12.86,0-19.08,5.86t-6.22,18.86c0,8.66,2.19,14.58,6.57,18.3s10.72,5.58,19,5.58a67.78,67.78,0,0,0,13.21-1.27,65.16,65.16,0,0,0,12.79-4v23.32a83.74,83.74,0,0,1-12.79,3.32A86.9,86.9,0,0,1,872,161Z"/>
          </g>
          <path class="cls-2" d="M128.82,144.45,76.14,165.16c-28.8-71.55,11.31-151,11.31-151s10.73,29.07,67,48.39l51.48,17.67L252.75,0,190.09,152.48a19.49,19.49,0,0,0-23.57,7.13L147,146.45a19.64,19.64,0,0,0-18.17-2Zm52.5,45.5a19.05,19.05,0,0,1-6-1.43,19.48,19.48,0,0,1-11.93-15.45L0,195.09l93.91,1.14c17.84,23.22,45.84,44,88.49,58.58a85.93,85.93,0,0,0,40.38,3.83l-35.73-28.47a19.65,19.65,0,0,1-7.35-16.73L181.33,190Zm110.85,11.17A86.42,86.42,0,0,0,239,91.51l-6.83,45.36a19.65,19.65,0,0,1-10.81,14.73l-21.16,10.32a19.35,19.35,0,0,1,.54,16,19.58,19.58,0,0,1-6.13,8L295.33,316.41s-.09-.36-17-34,7.57-63,13.85-81.35Z"/>
        </g>
      </g>
    </g>
  </g>
</svg>
